<svg width="23" height="23" viewBox="0 0 23 23" fill="none" xmlns="http://www.w3.org/2000/svg">
<path d="M16.7667 6.88203L9.44446 14.1541L5.45557 10.2036L3.88891 11.7595L9.44446 17.277L18.3334 8.449L16.7667 6.88203ZM11.6667 0.724503C5.53335 0.724503 0.555573 5.66818 0.555573 11.7595C0.555573 17.8508 5.53335 22.7945 11.6667 22.7945C17.8 22.7945 22.7778 17.8508 22.7778 11.7595C22.7778 5.66818 17.8 0.724503 11.6667 0.724503ZM11.6667 20.5875C6.75557 20.5875 2.77779 16.637 2.77779 11.7595C2.77779 6.88203 6.75557 2.9315 11.6667 2.9315C16.5778 2.9315 20.5556 6.88203 20.5556 11.7595C20.5556 16.637 16.5778 20.5875 11.6667 20.5875Z" fill="#04D200"/>
</svg>
